   <svg
      xmlns="http://www.w3.org/2000/svg"
      id="e5e85c11-4a85-4aec-b175-1b95388f4875"
      data-name="Layer 1"
      width="865.76"
      height="682.89"
      viewBox="0 0 865.76 682.89"
    >
      <defs>
        <style xmlns="http://www.w3.org/1999/xhtml">
          *,
          ::after,
          ::before {
            box-sizing: border-box;
          }
          img,
          svg {
            vertical-align: middle;
          }
        </style>

        <style xmlns="http://www.w3.org/1999/xhtml">
          *,
          body,
          html {
            -webkit-font-smoothing: antialiased;
          }
          img,
          svg {
            max-width: 100%;
          }
        </style>
      </defs>

      <rect
        x="123.61"
        y="38.66"
        width="410.76"
        height="610.75"
        rx="14.17"
        fill="#bcbec0"
      />

      <rect
        x="106.85"
        y="37.46"
        width="410.76"
        height="610.75"
        rx="14.17"
        fill="#d1d3d4"
      />

      <rect x="157.44" y="92.63" width="313.01" height="74.18" fill="#ccc" />

      <rect x="157.44" y="192.89" width="55.43" height="22.01" fill="#bcbec0" />

      <rect x="243.3" y="192.89" width="55.43" height="22.01" fill="#bcbec0" />

      <rect x="329.16" y="192.89" width="55.43" height="22.01" fill="#bcbec0" />

      <rect x="415.02" y="192.89" width="55.43" height="22.01" fill="#bcbec0" />

      <rect
        x="161.78"
        y="247.23"
        width="62.49"
        height="53.8"
        rx="3.14"
        opacity="0.2"
      />

      <rect
        x="157.44"
        y="244.52"
        width="62.49"
        height="53.8"
        rx="3.14"
        fill="#bcbec0"
      />

      <rect
        x="244.93"
        y="247.23"
        width="62.49"
        height="53.8"
        rx="3.14"
        opacity="0.2"
      />

      <rect
        x="240.58"
        y="244.52"
        width="62.49"
        height="53.8"
        rx="3.14"
        fill="#bcbec0"
      />

      <rect
        x="326.99"
        y="247.23"
        width="62.49"
        height="53.8"
        rx="3.14"
        opacity="0.2"
      />

      <rect
        x="322.64"
        y="244.52"
        width="62.49"
        height="53.8"
        rx="3.14"
        fill="#a7a9ac"
      />

      <rect
        x="409.59"
        y="247.23"
        width="62.49"
        height="53.8"
        rx="3.14"
        opacity="0.2"
      />

      <rect
        x="405.24"
        y="244.52"
        width="62.49"
        height="53.8"
        rx="3.14"
        fill="#a7a9ac"
      />

      <rect
        x="162.33"
        y="317.88"
        width="62.49"
        height="53.8"
        rx="3.14"
        opacity="0.2"
      />

      <rect
        x="157.98"
        y="315.16"
        width="62.49"
        height="53.8"
        rx="3.14"
        fill="#a7a9ac"
      />

      <rect
        x="245.47"
        y="317.88"
        width="62.49"
        height="53.8"
        rx="3.14"
        opacity="0.2"
      />

      <rect
        x="241.13"
        y="315.16"
        width="62.49"
        height="53.8"
        rx="3.14"
        fill="#a7a9ac"
      />

      <rect
        x="327.53"
        y="317.88"
        width="62.49"
        height="53.8"
        rx="3.14"
        opacity="0.2"
      />

      <rect
        x="323.18"
        y="315.16"
        width="62.49"
        height="53.8"
        rx="3.14"
        fill="#a7a9ac"
      />

      <rect
        x="410.13"
        y="317.88"
        width="62.49"
        height="53.8"
        rx="3.14"
        opacity="0.2"
      />

      <rect
        x="405.78"
        y="315.16"
        width="62.49"
        height="53.8"
        rx="3.14"
        fill="#a7a9ac"
      />

      <rect
        x="162.33"
        y="385.81"
        width="62.49"
        height="53.8"
        rx="3.14"
        opacity="0.2"
      />

      <rect
        x="157.98"
        y="383.09"
        width="62.49"
        height="53.8"
        rx="3.14"
        fill="#a7a9ac"
      />

      <rect
        x="245.47"
        y="385.81"
        width="62.49"
        height="53.8"
        rx="3.14"
        opacity="0.2"
      />

      <rect
        x="241.13"
        y="383.09"
        width="62.49"
        height="53.8"
        rx="3.14"
        fill="#a7a9ac"
      />

      <rect
        x="327.53"
        y="385.81"
        width="62.49"
        height="53.8"
        rx="3.14"
        opacity="0.2"
      />

      <rect
        x="323.18"
        y="383.09"
        width="62.49"
        height="53.8"
        rx="3.14"
        fill="#a7a9ac"
      />

      <rect
        x="410.13"
        y="385.81"
        width="62.49"
        height="53.8"
        rx="3.14"
        opacity="0.2"
      />

      <rect
        x="405.78"
        y="383.09"
        width="62.49"
        height="53.8"
        rx="3.14"
        fill="#a7a9ac"
      />

      <rect
        x="161.24"
        y="460.8"
        width="62.49"
        height="53.8"
        rx="3.14"
        opacity="0.2"
      />

      <rect
        x="156.89"
        y="458.08"
        width="62.49"
        height="53.8"
        rx="3.14"
        fill="#a7a9ac"
      />

      <rect
        x="244.39"
        y="460.8"
        width="62.49"
        height="53.8"
        rx="3.14"
        opacity="0.2"
      />

      <rect
        x="240.04"
        y="458.08"
        width="62.49"
        height="53.8"
        rx="3.14"
        fill="#a7a9ac"
      />

      <rect
        x="326.44"
        y="460.8"
        width="62.49"
        height="53.8"
        rx="3.14"
        opacity="0.2"
      />

      <rect
        x="322.1"
        y="458.08"
        width="62.49"
        height="53.8"
        rx="3.14"
        fill="#a7a9ac"
      />

      <rect
        x="162.33"
        y="532.53"
        width="62.49"
        height="53.8"
        rx="3.14"
        opacity="0.2"
      />

      <rect
        x="157.98"
        y="529.82"
        width="62.49"
        height="53.8"
        rx="3.14"
        fill="#a7a9ac"
      />

      <rect
        x="245.47"
        y="532.53"
        width="62.49"
        height="53.8"
        rx="3.14"
        opacity="0.2"
      />

      <rect
        x="241.13"
        y="529.82"
        width="62.49"
        height="53.8"
        rx="3.14"
        fill="#a7a9ac"
      />

      <rect
        x="327.53"
        y="532.53"
        width="62.49"
        height="53.8"
        rx="3.14"
        opacity="0.2"
      />

      <rect
        x="323.18"
        y="529.82"
        width="62.49"
        height="53.8"
        rx="3.14"
        fill="#a7a9ac"
      />

      <rect
        x="408.5"
        y="461.89"
        width="61.95"
        height="124.44"
        rx="2"
        opacity="0.2"
      />

      <rect
        x="404.15"
        y="458.63"
        width="61.95"
        height="124.44"
        rx="2"
        fill="#bcbec0"
      />

      <path
        d="M621.56,282.36a155.79,155.79,0,0,0,1.59-18.8l-32.32,2.64-5.29,19.15,34.38,1.46C620.87,284.51,621.37,283,621.56,282.36Z"
        fill="#0071f2"
        data-primary="true"
      />

      <path
        d="M621.56,282.36a155.79,155.79,0,0,0,1.59-18.8l-32.32,2.64-5.29,19.15,34.38,1.46C620.87,284.51,621.37,283,621.56,282.36Z"
        opacity="0.2"
      />

      <path
        d="M698.46,66.46s20.31,4.07,32.48,13.94,20.28,33.61,14.49,48.68-7.35,14.1-.4,22.8,1.17,23.8,1.17,23.8l-44.64-13.91a302.23,302.23,0,0,1,2.64-32.08c2.3-15.65,1.14-44.64-5.82-52.76Z"
        fill="#2f2e41"
        data-secondary="true"
      />

      <path
        d="M635.47,439.35,643,479.94a172,172,0,0,0,4.62,49.32c6.38,23.8,11,77.12,11,77.12s-9.86,8.09-20.31,15-16.79,13.35-2.3,13.35,22-4.07,30.7-7.54,15.66-5.29,15.66-9.86-4.63-23.8-4.63-23.8,1.75-67.81,1.75-89.92A165.27,165.27,0,0,0,675.46,466V444.11Z"
        fill="#f9b499"
      />

      <path
        d="M666.75,627.3c8.71-3.49,15.66-5.29,15.66-9.87a49.21,49.21,0,0,0-.95-6.95c-4.1,2-8.78,4.47-11.8,6.37-6.37,4.07-15.07,8.12-20.28,8.12a29.63,29.63,0,0,1-11-3.44c-10.42,6.93-16.77,13.22-2.28,13.22S658.08,630.76,666.75,627.3Z"
        fill="#0071f2"
        data-primary="true"
      />

      <path
        d="M669.08,452.22l1.75,27.24s-3.49,33,0,55.54,3.46,65.51,3.46,72.46S669,622,659.8,630.07c0,0-7.54,8.7-4,13.91s28.41-4.62,29.09-10.42,6.38-18.51,6.38-22.61V592.44c0-4.05,16.23-58.52,14.49-78.25S704,465.5,704,465.5l.59-20.28S679,453.39,669.08,452.22Z"
        fill="#f9b499"
      />

      <path
        d="M677.2,633.09c-8.49,4-13.22-3.62-14.23-5.82-1,1-2,1.93-3.17,2.91,0,0-7.54,8.7-4,13.91s28.41-4.63,29.09-10.42,6.38-18.51,6.38-22.61h0C688.41,618.75,683.52,630.1,677.2,633.09Z"
        fill="#0071f2"
        data-primary="true"
      />

      <path
        d="M632,273.08s-22,48.71-23.8,74.79,13.93,95.07,13.93,95.07,28.41,13.23,52.16,12.17A141,141,0,0,0,715.6,447s20.87-60.83,14.49-96.79-22-73.05-22-73.05l-74.44-9.28Z"
        fill="#2f2e41"
        data-secondary="true"
      />

      <path
        d="M666.2,150.19s9.84-5.79,17.37-5.79h11.61s5.29,20.86,5.29,23.19-22,109-22,109l-41.73-4.07s0-67.23,5.79-87.54S666.2,150.19,666.2,150.19Z"
        fill="#fff"
      />

      <path
        d="M633.62,67.09s-4,24.36,1.16,41.18,19.7,34.78,25.52,35.36a22.78,22.78,0,0,0,12.17-3.49l-2.15,7.75L664.23,175l22.33,1.87s8.7-30.73,8.7-32.47-.18-6-.18-6l-2.33-23.19A166.51,166.51,0,0,0,701.45,99c1.75-4.63-2.33-12.17-2.33-12.17s4.18-25.07-9.83-37.68c-17.41-15.66-47.61-1.75-55.09,5.79S633.62,67.09,633.62,67.09Z"
        fill="#f9b499"
      />

      <path
        d="M672.47,140.14l7.88-2.33-12.29,20.13c.56-2.85,1.21-5.81,2-8.86S671.62,143,672.47,140.14Z"
        fill="#f7a78d"
      />

      <path
        d="M689.15,49.14c-18.51-15.66-47.6-1.75-55.08,5.79s-.58,12.16-.58,12.16,4.07-4,14.49,0S666.49,92,674.08,94.36a128.79,128.79,0,0,0,14.49,3.46s0-8.7,4-9.86A26.55,26.55,0,0,1,699,86.82S703.62,61.3,689.15,49.14Z"
        fill="#2f2e41"
        data-secondary="true"
      />

      <path
        d="M670.32,147.89s-25.6,12.16-31.39,13.22S622.7,166.9,623.28,171s-2.3,66.67-.58,70.74,0,36.52-1.14,40.57-19.68,56.91-19.68,56.91,4.08,4.65,12.78,1.16,20.86-40.57,23.16-55.06,18-78.28,22-92.77S670.32,147.89,670.32,147.89Z"
        fill="#0071f2"
        data-primary="true"
      />

      <path
        d="M695.18,144.4S683.57,189,677.78,207s-11.58,28.43-10.58,42.32-.58,84,9.87,93.91,23.8,16.21,37,16.21a113.06,113.06,0,0,0,27.24-4.05s-16.24-88.7-16.24-91,25.52-84.07,24.94-91S695.18,144.4,695.18,144.4Z"
        fill="#0071f2"
        data-primary="true"
      />

      <path
        d="M647.63,199.46A239,239,0,0,0,650,231.19c4.1-16.82,7.93-32.42,9.81-38.74,4.07-14.49,10.52-44.56,10.52-44.56s-6.32,3-13.43,6.16C653.61,163.94,647.63,184.51,647.63,199.46Z"
        fill="#fff"
        opacity="0.2"
      />

      <path
        d="M695.18,144.4S683.57,189,677.78,207c-3.12,9.63-6.21,17.11-8.25,24.09a98.55,98.55,0,0,0,21.58-23.51c9.52-14.25,15.52-46.46,17.35-57.57C700.82,146.67,695.18,144.4,695.18,144.4Z"
        fill="#fff"
        opacity="0.2"
      />

      <path
        d="M591.3,268.45l-5.79,16.82-5.82-21.45A11.28,11.28,0,0,1,591.3,268.45Z"
        fill="#0071f2"
        data-primary="true"
      />

      <polygon
        points="550.18 202.84 583.21 260.81 626.11 263.14 597.7 202.84 550.18 202.84"
        fill="#2f2e41"
        data-secondary="true"
      />

      <path
        d="M579.8,263.82s-16.21-23.8-18.51-29.56a45.31,45.31,0,0,1-3.49-15.08c0-3.49,1.16-4.65,2.91-.58S566,231.35,566,231.35l2.9-17.4s1.75-2.88,3.47.58,0,16.82,0,16.82L577,211.07s2.3-4.08,4.05-1.17S579.91,229,579.91,229l5.29-12.16a3.59,3.59,0,0,1,3.46,2.91c.58,2.88-4,18.51-4,18.51l7.54-7.54s2.88-1.16,1.72,2.33a77.1,77.1,0,0,1-7.51,12.16,72.1,72.1,0,0,1,3.24,9.59,3.46,3.46,0,0,1,0,1.72,25.41,25.41,0,0,1-2.12,5.51l3.8,6.4-3.82,11.2Z"
        fill="#f9b499"
      />

      <path
        d="M670.83,247s-18.75-14.76-22.53-18c-5.11-4.37-14-2.86-14-2.86s-13.92,9.28-16.24,11.58-2.33,4.66,0,4.08a99.48,99.48,0,0,0,12.16-7l.47,6.92a4.05,4.05,0,0,0,1.46,2.87l6.53,5.42a3.89,3.89,0,0,0,3.89.64l3.47-1.32a16.26,16.26,0,0,0,5.8,2.91,11.5,11.5,0,0,0,5.81-.58L668,261.93Z"
        fill="#f9b499"
      />

      <path
        d="M730.54,162.93s22.61,4.66,25.5,12.2.58,125.22-1.75,128.68-91.58-41.65-91.58-41.65l7.54-17.4,51.59,13.91-3.6-56.89"
        fill="#0071f2"
        data-primary="true"
      />

      <path
        d="M730.54,162.93s22.61,4.66,25.5,12.2.58,125.22-1.75,128.68-91.58-41.65-91.58-41.65l7.54-17.4,51.59,13.91-3.6-56.89"
        opacity="0.2"
      />
    </svg>